<?xml version="1.0" encoding="UTF-8"?>
<svg version="1.1" viewBox="0 0 59.348 114.21" xmlns="http://www.w3.org/2000/svg">
<g transform="translate(-42.586 -66.203)">
<path d="m100.53 179.11c-0.96688-2.5192-8.5817-13.668-10.527-21.982-1.8699-7.9935 0.375-24.625 0.375-24.625s4.9353-12.734 5.875-19.438c0.9661-6.8917 1.1827-14.753 0.0625-22-0.82529-5.3392-1.9439-11.241-4.875-16.688-1.4532-2.7005-5.2395-5.0239-8.125-6.0625-3.9058-1.4058-8.2953-1.3569-12.312-0.5-3.3441 0.71336-6.8391 2.0772-9.1875 4.5625-5.6419 4.5619-6.5901 11.944-6.6875 18.688l-1.5 17.938s3.3842 5.4597 4.875 8.5c1.0965 2.2361 2.0834 4.5974 2.4375 7.0625 0.75612 5.2644-0.36117 10.633-0.75 15.938-0.44543 6.0762-0.63652 12.284-2 18.25-0.67501 2.9535-3.1298 9.8834-4.5303 12.736 14.99 0.9835 38.614 8.361 46.869 7.6204z" fill="none" stroke="#000" stroke-linecap="round" stroke-width="2" style="paint-order:stroke fill markers"/>
<g>
<path d="m52.883 108.46c8.418-0.32317 7.9541 0.38088 11.961 2.1336 2.7497-1.9616 12.478-6.09 14.365-5.0026-9.2594 15.24-13.905 32.948-20.246 53.723 0.93126-9.0124 2.9754-23.006 2.7745-33.711-0.55214-5.7166-5.1896-14.392-8.8545-17.143z" fill="#abaaab" style="paint-order:stroke fill markers"/>
<path d="m53.916 172.4c4.7046-9.1047 11.715-36.259 13.843-46.731 3.4295-7.2509 5.3216-14.1 9.598-19.027-2.8839-7.3405 1.709-9.6636-1.2334-12.506-1.6626-2.5957-2.9436-4.8965-4.0953-6.6414-1.4788-2.2404-2.2298-2.4452-4.6324-2.8164-8.7105-0.07449-11.904 6.9969-11.994 6.8768-0.23418-13.024 7.6242-25.748 23.641-23.715 21.424 0.6515 16.72 42.189 16.666 45.194-2.4422 9.6366-6.6998 20.306-7.0734 29.891-0.87608 20.729 8.9265 32.135 12.201 36.64 1.1412 3.6944-47.483-5.6889-46.92-7.165z" fill="#ebebeb" style="paint-order:stroke fill markers"/>
<circle cx="81.066" cy="86.523" r="4.0357" style="paint-order:stroke fill markers"/>
<ellipse cx="79.921" cy="84.58" rx=".7513" ry=".7955" fill="#fff" style="paint-order:stroke fill markers"/>
<circle cx="68.188" cy="90.373" r="2.25" style="paint-order:stroke fill markers"/>
<path d="m64.036 110.54c-2.6143 0.157-4.9562-1.7545-7.528-2.2495-3.0218-0.58168-6.4072-0.9001-9.1944-0.82943-1.5114-0.30007-3.5963-1.4162-2.7144-3.08 6.9758-1.7878 12.005-1.3392 16.943-1.5452 3.4352 0.0968 10.632 0.40058 14.58 0.79044 1.7588 0.0786 2.2985 0.3189 1.3631 1.6608-2.5787 2.5582-11.936 5.1082-13.45 5.2528z" fill="#d36c04" stroke="#000" stroke-linecap="round" stroke-width="2" style="paint-order:stroke fill markers"/>
<path d="m43.893 101.83c-2.3267-6.0187 8.2063-5.8741 11.969-9.9413 3.6351-4.1356 5.8269-6.7976 11.223-6.9547 3.6736-0.15374 5.1589 3.5501 6.4324 6.7132 1.449 3.5991 4.6837 5.4274 5.2958 7.989 0.24212 1.2902-2.2274 3.6377-3.0945 3.835-3.6459 0.47598-6.7207-1.6707-13.157-1.5797-8.1934 0.1158-17.938 1.473-18.668-0.0614z" fill="#ff7f00" stroke="#000" stroke-linecap="round" stroke-width="2" style="paint-order:stroke fill markers"/>
</g>
</g>
</svg>
